<?xml version="1.0" encoding="utf-8"?>
<!-- Generator: Adobe Illustrator 15.1.0, SVG Export Plug-In  -->
<!DOCTYPE svg PUBLIC "-//W3C//DTD SVG 1.1//EN" "http://www.w3.org/Graphics/SVG/1.1/DTD/svg11.dtd" [
	<!ENTITY ns_flows "http://ns.adobe.com/Flows/1.0/">
]>
<svg version="1.1"
	 xmlns="http://www.w3.org/2000/svg" xmlns:xlink="http://www.w3.org/1999/xlink" xmlns:a="http://ns.adobe.com/AdobeSVGViewerExtensions/3.0/"
	 x="0px" y="0px" width="376px" height="61px" viewBox="-0.578 -0.512 376 61" enable-background="new -0.578 -0.512 376 61"
	 xml:space="preserve">
<defs>
</defs>
<g>
	<g>
		<path fill="#FFFFFF" d="M174.439,58.445c0,0.097-0.011,0.311-0.355,0.311c-0.279,0-0.391-0.088-0.391-0.311v-6.164
			c0-0.563,0.055-1.24,1.293-1.24h3.032c1.36,0,2.619,0.397,2.619,2.229c0,0.688-0.189,1.473-0.959,1.919
			c-0.412,0.242-1.171,0.338-1.673,0.338h-3.566V58.445z M174.439,54.956h3.5c0.436,0,1.071-0.058,1.372-0.271
			c0.535-0.379,0.568-1.067,0.568-1.405c0-1.435-0.869-1.667-1.94-1.667h-2.809c-0.557,0-0.691,0.271-0.691,0.609V54.956z"/>
		<path fill="#FFFFFF" d="M184.583,52.893c2.542,0,2.888,1.133,2.888,2.81c0,1.638-0.067,3.054-2.888,3.054
			c-2.698,0-2.898-1.29-2.898-2.928C181.685,54.21,181.853,52.893,184.583,52.893z M182.387,55.906c0,1.667,0.324,2.287,2.196,2.287
			c2.028,0,2.185-0.756,2.185-2.521c0-1.638-0.367-2.218-2.185-2.218C182.531,53.455,182.387,54.24,182.387,55.906z"/>
		<path fill="#FFFFFF" d="M191.383,58.242c-0.09,0.377-0.324,0.514-0.76,0.514c-0.467,0-0.68-0.107-0.791-0.505l-1.393-4.933
			c-0.012-0.058-0.033-0.117-0.033-0.164c0-0.204,0.232-0.262,0.412-0.262c0.156,0,0.256,0.058,0.313,0.281l1.293,4.854
			c0.012,0.059,0.033,0.155,0.189,0.155c0.101,0,0.156-0.068,0.178-0.155l1.06-4.545c0.067-0.271,0.155-0.591,0.757-0.591
			c0.559,0,0.713,0.174,0.814,0.591l1.059,4.545c0.022,0.106,0.09,0.155,0.189,0.155c0.111,0,0.156-0.077,0.179-0.155l1.282-4.854
			c0.055-0.204,0.135-0.281,0.322-0.281c0.19,0,0.413,0.058,0.413,0.262c0,0.038-0.022,0.116-0.033,0.164l-1.394,4.933
			c-0.078,0.291-0.223,0.505-0.758,0.505c-0.412,0-0.691-0.088-0.791-0.514l-1.082-4.624c-0.012-0.048-0.033-0.146-0.168-0.146
			c-0.11,0-0.166,0.05-0.189,0.146L191.383,58.242z"/>
		<path fill="#FFFFFF" d="M198.582,56.004c-0.012,1.326,0.234,2.199,2.185,2.199c0.903,0,1.828-0.146,1.983-1.019
			c0.034-0.192,0.057-0.349,0.369-0.349c0.179,0,0.346,0.049,0.346,0.242c0,0.098-0.045,0.32-0.146,0.553
			c-0.446,0.979-1.562,1.125-2.485,1.125c-2.318,0-2.955-0.96-2.955-2.878c0-1.483,0.246-2.985,2.865-2.985
			c1.004,0,2.107,0.242,2.53,1.23c0.19,0.445,0.19,0.814,0.19,0.882c0,0.494-0.167,0.999-1.248,0.999H198.582z M202.16,55.461
			c0.502,0,0.602-0.194,0.602-0.495c0-0.31-0.11-0.669-0.323-0.931c-0.39-0.493-1.036-0.591-1.728-0.591
			c-1.884,0-2.062,1.018-2.129,2.017H202.16z"/>
		<path fill="#FFFFFF" d="M205.727,58.445c0,0.077,0,0.311-0.357,0.311c-0.334,0-0.346-0.214-0.346-0.311l-0.01-5.244
			c0-0.115,0.033-0.309,0.346-0.309c0.244,0,0.334,0.106,0.345,0.3l0.022,0.416c0.469-0.532,0.971-0.716,1.963-0.716
			c0.345,0,0.557,0,0.557,0.271c0,0.281-0.167,0.31-0.289,0.31c-0.793,0-0.949,0-1.127,0.05c-0.457,0.136-0.914,0.455-1.059,0.959
			c-0.045,0.175-0.045,0.417-0.045,0.484V58.445z"/>
		<path fill="#FFFFFF" d="M209.729,56.004c-0.012,1.326,0.233,2.199,2.184,2.199c0.903,0,1.828-0.146,1.984-1.019
			c0.033-0.192,0.057-0.349,0.367-0.349c0.18,0,0.346,0.049,0.346,0.242c0,0.098-0.043,0.32-0.145,0.553
			c-0.445,0.979-1.561,1.125-2.485,1.125c-2.318,0-2.954-0.96-2.954-2.878c0-1.483,0.245-2.985,2.865-2.985
			c1.003,0,2.107,0.242,2.529,1.23c0.189,0.445,0.189,0.814,0.189,0.882c0,0.494-0.166,0.999-1.247,0.999H209.729z M213.306,55.461
			c0.501,0,0.603-0.194,0.603-0.495c0-0.31-0.111-0.669-0.324-0.931c-0.39-0.493-1.035-0.591-1.727-0.591
			c-1.885,0-2.063,1.018-2.129,2.017H213.306z"/>
		<path fill="#FFFFFF" d="M220.74,51.273c0-0.077,0-0.311,0.357-0.311c0.334,0,0.344,0.214,0.344,0.311v7.172
			c0,0.077,0,0.311-0.322,0.311c-0.29,0-0.323-0.195-0.334-0.291l-0.045-0.484c-0.323,0.436-0.802,0.775-2.084,0.775
			c-1.906,0-2.574-0.834-2.574-3.033c0-1.482,0.301-2.83,2.586-2.83c1.493,0,1.883,0.532,2.072,0.785V51.273z M216.783,55.828
			c0,1.58,0.289,2.365,2.006,2.365c1.562,0,1.963-0.833,1.963-2.365c0-1.715-0.535-2.373-1.996-2.373
			C216.973,53.455,216.783,54.413,216.783,55.828z"/>
		<path fill="#FFFFFF" d="M227.65,58.465c0,0.077-0.021,0.291-0.322,0.291c-0.334,0-0.334-0.233-0.334-0.311v-7.172
			c0-0.077,0-0.311,0.355-0.311c0.334,0,0.346,0.214,0.346,0.311v2.404c0.189-0.243,0.592-0.785,2.085-0.785
			c2.239,0,2.585,1.298,2.585,2.839c0,2.016-0.545,3.024-2.541,3.024c-1.215,0-1.738-0.263-2.117-0.775L227.65,58.465z
			 M227.695,55.828c0,1.852,0.635,2.365,2.018,2.365c1.783,0,1.951-1.027,1.951-2.365c0-1.453-0.223-2.373-1.984-2.373
			C228.174,53.455,227.695,54.171,227.695,55.828z"/>
		<path fill="#FFFFFF" d="M238.162,53.163c0.045-0.116,0.111-0.271,0.367-0.271c0.102,0,0.412,0.028,0.412,0.271
			c0,0.059-0.01,0.107-0.033,0.164l-2.273,5.389c-0.367,0.883-0.791,1.261-1.783,1.261c-0.234,0-0.746-0.039-0.869-0.059
			c-0.189-0.038-0.234-0.164-0.234-0.291c0-0.115,0.033-0.262,0.234-0.262c0.123,0,0.725,0.049,0.857,0.049
			c0.246,0,0.736,0,1.004-0.639l0.078-0.185l-2.432-5.264c-0.021-0.038-0.043-0.115-0.043-0.173c0-0.185,0.244-0.262,0.423-0.262
			s0.269,0.058,0.357,0.262l2.073,4.797L238.162,53.163z"/>
		<path fill="#FFFFFF" d="M250.322,54.452v-3.179c0-0.097,0.012-0.311,0.356-0.311c0.278,0,0.39,0.088,0.39,0.311v7.172
			c0,0.107,0,0.311-0.355,0.311c-0.278,0-0.391-0.088-0.391-0.311v-3.421h-5.552v3.421c0,0.097,0,0.311-0.356,0.311
			c-0.278,0-0.391-0.088-0.391-0.311v-7.172c0-0.097,0.012-0.311,0.357-0.311c0.279,0,0.39,0.088,0.39,0.311v3.179H250.322z"/>
		<path fill="#FFFFFF" d="M253.922,58.445c0,0.097-0.012,0.311-0.356,0.311c-0.278,0-0.392-0.088-0.392-0.311v-6.164
			c0-0.563,0.057-1.24,1.293-1.24h3.033c1.36,0,2.619,0.397,2.619,2.229c0,0.688-0.189,1.473-0.959,1.919
			c-0.412,0.242-1.17,0.338-1.672,0.338h-3.566V58.445z M253.922,54.956h3.5c0.434,0,1.07-0.058,1.371-0.271
			c0.535-0.379,0.568-1.067,0.568-1.405c0-1.435-0.869-1.667-1.939-1.667h-2.809c-0.559,0-0.691,0.271-0.691,0.609V54.956z"/>
		<path fill="#FFFFFF" d="M268.99,55.432c-0.111,0-0.345-0.021-0.345-0.281c0-0.185,0.077-0.291,0.345-0.291h2.096
			c0.592,0,1.428,0.029,1.428,1.104c0,0.64-0.145,1.104-0.334,1.512c-0.457,1.009-1.717,1.28-3.322,1.28
			c-1.693,0-2.598-0.33-3.154-1.105c-0.513-0.718-0.625-1.57-0.625-2.646c0-2.491,0.524-4.042,3.768-4.042
			c1.316,0,2.654,0.204,3.3,1.231c0.212,0.339,0.312,0.756,0.312,0.998c0,0.106,0,0.31-0.355,0.31c-0.357,0-0.369-0.125-0.412-0.396
			c-0.201-1.356-1.484-1.571-2.865-1.571c-2.174,0-2.998,0.729-2.998,3.394c0,2.433,0.59,3.256,2.896,3.256
			c1.863,0,3.033-0.232,3.033-2.142c0-0.34-0.133-0.61-0.691-0.61H268.99z"/>
		<path fill="#FFFFFF" d="M274.875,58.445c0,0.077,0,0.311-0.355,0.311c-0.334,0-0.346-0.214-0.346-0.311l-0.012-5.244
			c0-0.115,0.034-0.309,0.346-0.309c0.246,0,0.334,0.106,0.346,0.3l0.021,0.416c0.469-0.532,0.971-0.716,1.963-0.716
			c0.346,0,0.558,0,0.558,0.271c0,0.281-0.167,0.31-0.29,0.31c-0.792,0-0.949,0-1.126,0.05c-0.457,0.136-0.913,0.455-1.06,0.959
			c-0.045,0.175-0.045,0.417-0.045,0.484V58.445z"/>
		<path fill="#FFFFFF" d="M282.143,55.334c0.391-0.009,0.758-0.02,0.758-0.757c0-0.532-0.021-1.122-1.938-1.122
			c-0.614,0-1.628,0-1.806,0.881c-0.057,0.262-0.079,0.378-0.381,0.378c-0.055,0-0.355,0-0.355-0.252
			c0-0.203,0.09-0.514,0.246-0.756c0.378-0.571,1.248-0.813,2.307-0.813c2.597,0,2.597,1.036,2.597,1.831v2.888
			c0,0.281,0.022,0.523,0.079,0.795c0.01,0.039,0.021,0.098,0.021,0.136c0,0.165-0.189,0.214-0.301,0.214
			c-0.324,0-0.424-0.165-0.457-0.824c-0.223,0.378-0.557,0.824-2.296,0.824c-0.96,0-2.452-0.068-2.452-1.668
			c0-0.592,0.211-1.104,0.803-1.434c0.256-0.146,0.756-0.263,1.125-0.271L282.143,55.334z M282.889,55.635
			c-0.121,0.136-0.322,0.213-0.701,0.223l-1.895,0.039c-0.391,0.01-0.691,0.077-0.959,0.232c-0.334,0.193-0.469,0.572-0.469,1.018
			c0,0.862,0.637,1.057,1.828,1.057c1.851,0,2.195-0.747,2.195-1.638V55.635z"/>
		<path fill="#FFFFFF" d="M286.077,59.666c0,0.068-0.011,0.311-0.335,0.311c-0.322,0-0.334-0.214-0.334-0.311v-6.465
			c0-0.096,0.023-0.309,0.324-0.309c0.234,0,0.312,0.116,0.322,0.3l0.022,0.505c0.356-0.476,0.825-0.805,2.095-0.805
			c2.23,0,2.609,1.269,2.609,2.79c0,1.852-0.669,2.821-2.586,2.821c-1.338,0-1.817-0.397-2.118-0.814V59.666z M290.079,55.723
			c0-1.648-0.456-2.268-2.018-2.268c-1.071,0-1.962,0.357-1.962,2.237c0,1.997,0.992,2.239,1.996,2.239
			C289.723,57.932,290.079,57.138,290.079,55.723z"/>
		<path fill="#FFFFFF" d="M297.625,58.445c0,0.097-0.021,0.311-0.355,0.311c-0.348,0-0.357-0.214-0.357-0.311v-3.508
			c0-0.592-0.09-1.493-1.817-1.493c-0.679,0-1.192,0.194-1.549,0.515c-0.278,0.251-0.413,0.823-0.413,1.375v3.111
			c0,0.097-0.012,0.311-0.346,0.311s-0.355-0.203-0.355-0.311v-7.172c0-0.077,0-0.311,0.344-0.311c0.346,0,0.357,0.204,0.357,0.311
			v2.471c0.469-0.639,1.305-0.852,2.107-0.852c1.782,0,2.385,0.805,2.385,1.947V58.445z"/>
		<path fill="#FFFFFF" d="M299.508,51.525c0-0.378,0-0.563,0.436-0.563c0.457,0,0.523,0.107,0.523,0.417
			c0,0.466-0.055,0.571-0.479,0.571C299.576,51.951,299.508,51.846,299.508,51.525z M300.345,58.445
			c0,0.087-0.012,0.311-0.357,0.311c-0.334,0-0.356-0.186-0.356-0.311v-5.244c0-0.086,0-0.309,0.346-0.309
			c0.335,0,0.368,0.193,0.368,0.309V58.445z"/>
		<path fill="#FFFFFF" d="M304.959,58.193c0.914,0,1.961-0.068,2.072-1.27c0.023-0.232,0.033-0.378,0.357-0.378
			c0.212,0,0.356,0.067,0.356,0.271c0,0.241-0.11,0.639-0.233,0.892c-0.424,0.852-1.338,1.047-2.498,1.047
			c-2.084,0-2.897-0.709-2.897-2.918c0-2.239,0.813-2.945,2.854-2.945c0.879,0,1.705,0.097,2.25,0.697
			c0.291,0.31,0.457,0.727,0.457,1.124c0,0.098,0,0.301-0.344,0.301c-0.357,0-0.357-0.155-0.369-0.311
			c-0.01-0.145-0.057-0.475-0.334-0.765c-0.424-0.456-1.172-0.484-1.65-0.484c-1.293,0-2.162,0.242-2.162,2.412
			C302.818,57.699,303.375,58.193,304.959,58.193z"/>
		<path fill="#FFFFFF" d="M314.589,58.678c-0.647,0-1.427-0.059-1.427-1.123v-6.281c0-0.097,0.012-0.311,0.356-0.311
			c0.278,0,0.401,0.088,0.401,0.311v6.222c0,0.388,0.178,0.611,0.691,0.611h3.857c0.11,0,0.355,0.009,0.355,0.271
			c0,0.192-0.089,0.3-0.355,0.3H314.589z"/>
		<path fill="#FFFFFF" d="M323.852,55.334c0.391-0.009,0.758-0.02,0.758-0.757c0-0.532-0.021-1.122-1.939-1.122
			c-0.613,0-1.627,0-1.806,0.881c-0.056,0.262-0.079,0.378-0.38,0.378c-0.055,0-0.356,0-0.356-0.252c0-0.203,0.09-0.514,0.247-0.756
			c0.377-0.571,1.246-0.813,2.307-0.813c2.597,0,2.597,1.036,2.597,1.831v2.888c0,0.281,0.022,0.523,0.077,0.795
			c0.012,0.039,0.023,0.098,0.023,0.136c0,0.165-0.189,0.214-0.301,0.214c-0.324,0-0.424-0.165-0.457-0.824
			c-0.223,0.378-0.558,0.824-2.297,0.824c-0.958,0-2.451-0.068-2.451-1.668c0-0.592,0.211-1.104,0.801-1.434
			c0.258-0.146,0.758-0.263,1.127-0.271L323.852,55.334z M324.598,55.635c-0.123,0.136-0.322,0.213-0.701,0.223l-1.896,0.039
			c-0.39,0.01-0.692,0.077-0.958,0.232c-0.336,0.193-0.469,0.572-0.469,1.018c0,0.862,0.635,1.057,1.828,1.057
			c1.85,0,2.195-0.747,2.195-1.638V55.635z"/>
		<path fill="#FFFFFF" d="M327.774,58.465c0,0.077-0.022,0.291-0.323,0.291c-0.334,0-0.334-0.233-0.334-0.311v-7.172
			c0-0.077,0-0.311,0.356-0.311c0.335,0,0.346,0.214,0.346,0.311v2.404c0.188-0.243,0.591-0.785,2.085-0.785
			c2.24,0,2.586,1.298,2.586,2.839c0,2.016-0.547,3.024-2.542,3.024c-1.216,0-1.739-0.263-2.116-0.775L327.774,58.465z
			 M327.819,55.828c0,1.852,0.636,2.365,2.018,2.365c1.783,0,1.95-1.027,1.95-2.365c0-1.453-0.223-2.373-1.984-2.373
			C328.299,53.455,327.819,54.171,327.819,55.828z"/>
		<path fill="#FFFFFF" d="M336.736,52.893c2.542,0,2.887,1.133,2.887,2.81c0,1.638-0.066,3.054-2.887,3.054
			c-2.697,0-2.898-1.29-2.898-2.928C333.838,54.21,334.006,52.893,336.736,52.893z M334.541,55.906c0,1.667,0.322,2.287,2.195,2.287
			c2.029,0,2.186-0.756,2.186-2.521c0-1.638-0.369-2.218-2.186-2.218C334.686,53.455,334.541,54.24,334.541,55.906z"/>
		<path fill="#FFFFFF" d="M341.774,58.445c0,0.077,0,0.311-0.356,0.311c-0.334,0-0.346-0.214-0.346-0.311l-0.012-5.244
			c0-0.115,0.034-0.309,0.346-0.309c0.246,0,0.334,0.106,0.346,0.3l0.022,0.416c0.468-0.532,0.97-0.716,1.962-0.716
			c0.346,0,0.559,0,0.559,0.271c0,0.281-0.168,0.31-0.291,0.31c-0.791,0-0.947,0-1.126,0.05c-0.456,0.136-0.914,0.455-1.06,0.959
			c-0.044,0.175-0.044,0.417-0.044,0.484V58.445z"/>
		<path fill="#FFFFFF" d="M349.041,55.334c0.391-0.009,0.758-0.02,0.758-0.757c0-0.532-0.021-1.122-1.938-1.122
			c-0.614,0-1.628,0-1.806,0.881c-0.057,0.262-0.08,0.378-0.381,0.378c-0.055,0-0.355,0-0.355-0.252c0-0.203,0.09-0.514,0.246-0.756
			c0.377-0.571,1.247-0.813,2.307-0.813c2.597,0,2.597,1.036,2.597,1.831v2.888c0,0.281,0.022,0.523,0.079,0.795
			c0.011,0.039,0.021,0.098,0.021,0.136c0,0.165-0.189,0.214-0.301,0.214c-0.323,0-0.424-0.165-0.457-0.824
			c-0.223,0.378-0.557,0.824-2.296,0.824c-0.958,0-2.452-0.068-2.452-1.668c0-0.592,0.211-1.104,0.803-1.434
			c0.256-0.146,0.758-0.263,1.125-0.271L349.041,55.334z M349.789,55.635c-0.123,0.136-0.324,0.213-0.703,0.223l-1.895,0.039
			c-0.391,0.01-0.691,0.077-0.959,0.232c-0.334,0.193-0.469,0.572-0.469,1.018c0,0.862,0.637,1.057,1.828,1.057
			c1.85,0,2.197-0.747,2.197-1.638V55.635z"/>
		<path fill="#FFFFFF" d="M353.154,51.846c0-0.077,0-0.32,0.346-0.32s0.357,0.214,0.357,0.32v1.124h1.426
			c0.156,0,0.355,0.039,0.355,0.281c0,0.204-0.121,0.291-0.355,0.291h-1.426v3.585c0,0.688,0,1.057,1.259,1.057
			c0.067,0,0.423-0.021,0.49-0.021c0.079,0,0.3,0,0.3,0.272c0,0.32-0.211,0.32-0.679,0.32c-1.905,0-2.073-0.582-2.073-1.474v-3.74
			h-1.148c-0.156,0-0.356-0.04-0.356-0.281c0-0.204,0.122-0.291,0.356-0.291h1.148V51.846z"/>
		<path fill="#FFFFFF" d="M359.854,52.893c2.541,0,2.887,1.133,2.887,2.81c0,1.638-0.066,3.054-2.887,3.054
			c-2.697,0-2.898-1.29-2.898-2.928C356.955,54.21,357.123,52.893,359.854,52.893z M357.656,55.906c0,1.667,0.324,2.287,2.197,2.287
			c2.028,0,2.184-0.756,2.184-2.521c0-1.638-0.367-2.218-2.184-2.218C357.803,53.455,357.656,54.24,357.656,55.906z"/>
		<path fill="#FFFFFF" d="M364.891,58.445c0,0.077,0,0.311-0.356,0.311c-0.334,0-0.347-0.214-0.347-0.311l-0.01-5.244
			c0-0.115,0.033-0.309,0.346-0.309c0.246,0,0.334,0.106,0.345,0.3l0.022,0.416c0.469-0.532,0.971-0.716,1.963-0.716
			c0.345,0,0.557,0,0.557,0.271c0,0.281-0.168,0.31-0.289,0.31c-0.793,0-0.949,0-1.127,0.05c-0.457,0.136-0.912,0.455-1.059,0.959
			c-0.045,0.175-0.045,0.417-0.045,0.484V58.445z"/>
		<path fill="#FFFFFF" d="M372.549,53.163c0.043-0.116,0.109-0.271,0.367-0.271c0.101,0,0.413,0.028,0.413,0.271
			c0,0.059-0.012,0.107-0.034,0.164l-2.273,5.389c-0.368,0.883-0.791,1.261-1.783,1.261c-0.234,0-0.748-0.039-0.869-0.059
			c-0.19-0.038-0.234-0.164-0.234-0.291c0-0.115,0.033-0.262,0.234-0.262c0.121,0,0.723,0.049,0.857,0.049
			c0.244,0,0.736,0,1.004-0.639l0.076-0.185l-2.43-5.264c-0.021-0.038-0.044-0.115-0.044-0.173c0-0.185,0.245-0.262,0.423-0.262
			c0.179,0,0.268,0.058,0.357,0.262l2.073,4.797L372.549,53.163z"/>
	</g>
</g>
<polygon fill="#FFFFFF" points="104.277,14.046 110.327,10.963 110.327,6.077 104.277,9.16 "/>
<polygon fill="#FFFFFF" points="104.729,45.822 109.875,45.822 109.875,15.336 104.729,18.418 "/>
<path fill="#FFFFFF" d="M163.174,37.82V22.28h8.938v-3.862h-8.938v-6.561h-5.088v6.561h-7.354v3.862h7.354v16.701
	c0,4.514,1.584,7.212,10.971,7.212c1.812,0,2.885-0.093,3.734-0.139v-3.862c-0.85,0.047-1.584,0.093-3.281,0.093
	C163.174,42.285,163.174,40.704,163.174,37.82z"/>
<polygon fill="#FFFFFF" points="273.488,14.046 279.539,10.963 279.539,6.077 273.488,9.16 "/>
<polygon fill="#FFFFFF" points="273.938,45.822 279.087,45.822 279.087,15.336 273.938,18.418 "/>
<path fill="#FFFFFF" d="M130.559,42.379c-8.039,0-9.932-2.099-10.107-8.931c-0.01-0.376-0.017-0.76-0.017-1.165
	c0-9.492,2.999-10.422,10.577-10.422c4.922,0,9.389,0.512,9.389,6.235h5.035c0.111-10.05-9.842-10.05-14.762-10.05
	c-10.028,0-14.519,2.314-15.217,11.341c-0.066,0.85-0.112,1.736-0.112,2.71c0,11.213,4.186,14.097,15.78,14.097
	c8.201,0,14.365-1.395,14.592-10.561h-5.034C140.683,41.728,137.121,42.379,130.559,42.379z"/>
<path fill="#FFFFFF" d="M326.822,42.379c-8.039,0-9.93-2.099-10.107-8.931c-0.01-0.376-0.018-0.76-0.018-1.165
	c0-9.492,2.999-10.422,10.578-10.422c4.921,0,9.389,0.512,9.389,6.235h5.033c0.111-10.05-9.842-10.05-14.76-10.05
	c-10.029,0-14.518,2.314-15.219,11.341c-0.064,0.85-0.109,1.736-0.109,2.71c0,11.213,4.185,14.097,15.779,14.097
	c8.201,0,14.363-1.395,14.591-10.561h-5.034C336.945,41.728,333.385,42.379,326.822,42.379z"/>
<polygon fill="#FFFFFF" points="256.129,42.332 252.829,30.102 249.68,18.418 242.554,18.418 239.414,30.063 236.107,42.332 
	229.207,18.418 223.948,18.418 232.432,45.822 239.669,45.822 243.082,33.044 246.118,21.676 249.186,33.064 252.621,45.822 
	259.861,45.822 268.344,18.418 263.085,18.418 "/>
<path fill="#FFFFFF" d="M82.508,0H71.289H58.09v5.059h6.785h0.641H77.51h4.079c6.362,0,10.888,1.047,10.888,8.955
	c0,8.024-4.737,8.955-10.888,8.955H77.85H65.516h-0.641H58.09v22.854h6.785V28.027h6.754h10.313c10.816,0,17.32-3.256,17.32-14.13
	C99.262,4.07,93.748,0,82.508,0z"/>
<path fill="#FFFFFF" d="M367.827,18.565c-1.39-0.329-3.044-0.52-5.028-0.52c-3.225,0-8.033,0.325-10.746,3.815V9.16h-5.034v36.662
	h5.034V29.724c0-4.327,1.471-7.91,9.16-7.91c0.914,0,1.719,0.053,2.448,0.14c5.778,0.686,6.149,3.864,6.149,6.095v17.773h5.033
	V27.444C374.844,24.506,374.156,20.07,367.827,18.565z"/>
<path fill="#FFFFFF" d="M207.53,20.94h-2.953h-0.056h-9.477h-3.01c-4.963,0-9.002-3.51-9.002-7.825c0-4.315,4.039-7.825,9.002-7.825
	h12.127h14.984V0.344h-21.064h-6.047c-7.845,0-14.229,5.729-14.229,12.771c0,7.041,6.384,12.77,14.229,12.77h3.01h3.453h6.023h3.009
	c4.964,0,9.005,3.511,9.005,7.825c0,4.315-4.041,7.825-9.005,7.825h-9.64h-2.518h-14.952v4.945h21.036h2.518h3.556
	c7.847,0,14.23-5.729,14.23-12.771C221.761,26.67,215.377,20.94,207.53,20.94z"/>
<path fill="#FFFFFF" d="M297,37.82V22.28h8.936v-3.862H297v-6.561h-5.092v6.561h-7.352v3.862h7.352v16.701
	c0,4.514,1.584,7.212,10.975,7.212c1.809,0,2.883-0.093,3.73-0.139v-3.862c-0.848,0.047-1.584,0.093-3.28,0.093
	C297,42.285,297,40.704,297,37.82z"/>
<polygon fill="#FFFFFF" points="16.439,20.998 31.439,20.998 31.439,40.447 47.885,24.002 23.941,0.06 0,24.002 16.439,40.444 "/>
<polygon fill="#FFFFFF" points="30.48,22.343 20.852,31.974 20.852,50.962 30.48,41.332 "/>
</svg>
